<svg width="12.0px" height="12.0px" version="1.1" xmlns="http://www.w3.org/2000/svg" desc="Created with ImageTracer.java" ><rect x="0" y="0" width="12.0px" height="12.0px" fill="rgb(0,0,0)" /><path desc="l 11 p 0" fill="rgb(0,0,0)" stroke="rgb(0,0,0)" stroke-width="1" d="M0.5 0.0 L 12.0 0.5 L 11.5 12.0 L 0.0 11.5 L 0.5 0.0 Z " /><path desc="l 5 p 0" fill="rgb(255,255,0)" stroke="rgb(255,255,0)" stroke-width="1" d="M4.5 1.0 Q 10.250000000000002 0.2500000000000002 11.0 4.5 Q 11.750000000000002 10.250000000000002 7.5 11.0 Q 1.7500000000000018 11.750000000000002 1.0 7.5 Q 0.2500000000000002 1.7500000000000018 4.5 1.0 Z " /><path desc="l 11 p 1" fill="rgb(0,0,0)" stroke="rgb(0,0,0)" stroke-width="1" d="M3.5 4.0 L 5.0 4.5 L 4.5 6.0 L 3.0 5.5 L 3.5 4.0 Z " /><path desc="l 11 p 2" fill="rgb(0,0,0)" stroke="rgb(0,0,0)" stroke-width="1" d="M7.5 4.0 L 9.0 4.5 L 8.5 6.0 L 7.0 5.5 L 7.5 4.0 Z " /><path desc="l 11 p 3" fill="rgb(0,0,0)" stroke="rgb(0,0,0)" stroke-width="1" d="M3.5 7.0 L 7.5 8.0 L 9.0 7.5 Q 8.25 9.75 4.5 9.0 L 3.5 7.0 Z " /></svg>